<?xml version="1.0" standalone="no"?>
<!DOCTYPE svg PUBLIC "-//W3C//DTD SVG 20010904//EN"
 "http://www.w3.org/TR/2001/REC-SVG-20010904/DTD/svg10.dtd">
<svg version="1.0" xmlns="http://www.w3.org/2000/svg"
 width="1408.000000pt" height="768.000000pt" viewBox="0 0 1408.000000 768.000000"
 preserveAspectRatio="xMidYMid meet">

<g transform="translate(0.000000,768.000000) scale(0.100000,-0.100000)"
fill="#000000" stroke="none">
<path d="M6537 6321 l-497 -330 0 -603 0 -603 297 -200 c163 -110 302 -206
309 -213 10 -10 14 -45 14 -133 l0 -119 55 0 55 0 0 -351 0 -350 50 42 50 42
0 443 0 442 -40 32 -39 31 -3 112 c-3 103 -5 112 -23 115 -32 6 -65 43 -65 73
0 23 -19 40 -140 124 -103 72 -140 104 -140 119 -1 13 -14 29 -33 41 -25 16
-33 28 -35 57 -6 76 80 117 133 63 29 -28 34 -85 10 -105 -32 -27 -15 -47 108
-133 116 -82 124 -86 164 -80 35 5 45 2 66 -19 24 -24 24 -25 19 -179 l-5
-155 42 -36 42 -36 -3 -426 c-2 -234 -1 -426 1 -426 2 0 21 14 42 31 l39 31 0
506 0 507 -37 137 c-38 137 -38 138 -73 149 -123 40 -232 134 -284 243 -18 39
-38 82 -44 97 -7 19 -21 28 -58 37 -27 6 -97 25 -156 41 l-108 29 0 -233 0
-233 225 -152 225 -153 0 -38 c0 -22 -3 -39 -6 -39 -3 0 -120 78 -260 173
l-254 172 3 524 2 525 425 283 c234 156 430 281 436 279 17 -6 826 -545 847
-564 18 -16 19 -35 13 -352 -3 -184 -5 -416 -6 -515 l0 -181 -287 -197 -288
-198 -3 31 c-2 18 -1 38 2 45 2 7 117 90 255 185 l251 173 0 229 c0 259 8 239
-90 211 l-60 -18 0 -72 c0 -61 3 -74 19 -82 51 -28 41 -133 -13 -147 -19 -4
-26 -13 -26 -29 0 -19 -27 -42 -129 -115 -151 -106 -151 -106 -151 -145 0 -23
-37 -55 -63 -55 -47 0 -57 -27 -57 -147 l0 -111 -49 -41 c-40 -34 -56 -41 -90
-41 -24 0 -44 -5 -46 -13 -3 -7 -4 -155 -3 -329 l3 -316 118 100 117 100 0
119 0 119 60 0 60 0 -4 119 c-5 101 -3 121 11 133 9 7 149 103 311 214 l295
201 4 592 c4 482 2 595 -9 608 -7 9 -119 86 -248 171 -552 365 -734 484 -744
488 -6 2 -235 -144 -509 -325z"/>
<path d="M6628 6121 l-378 -250 0 -231 c0 -177 3 -230 13 -230 6 0 39 8 72 18
l60 18 3 70 c3 64 1 72 -23 94 -33 31 -35 88 -2 118 13 12 29 22 35 22 7 0 12
13 12 28 0 25 16 39 138 122 126 85 139 97 139 123 0 38 42 77 84 77 72 0 106
-94 53 -147 -22 -22 -32 -25 -68 -20 -40 6 -48 2 -160 -75 -65 -44 -120 -87
-123 -94 -3 -8 2 -25 11 -39 25 -38 21 -92 -9 -119 -21 -20 -25 -32 -25 -84
l0 -60 56 17 c53 15 58 20 69 56 41 138 165 265 300 309 l51 16 38 143 c34
131 37 151 34 255 l-3 113 -377 -250z"/>
<path d="M7080 6238 c0 -107 4 -139 32 -247 29 -108 36 -125 58 -134 158 -64
228 -120 282 -224 20 -37 41 -84 47 -103 l11 -35 152 -43 c84 -23 156 -42 161
-42 4 0 7 103 7 229 l0 229 -337 224 c-186 123 -355 234 -375 247 l-38 23 0
-124z m25 70 c-7 -34 -15 -34 -15 1 0 18 4 30 9 26 6 -3 8 -15 6 -27z m211
-113 c10 -8 14 -15 7 -15 -6 0 -18 -3 -27 -6 -11 -4 -14 0 -13 15 2 25 7 26
33 6z m53 -39 c9 -11 9 -15 -1 -19 -17 -5 -59 14 -52 24 8 14 40 10 53 -5z
m-145 -52 c3 -8 2 -12 -4 -9 -6 3 -10 10 -10 16 0 14 7 11 14 -7z m140 -35
c14 -17 26 -41 26 -54 0 -18 21 -37 98 -88 157 -105 182 -125 182 -148 0 -11
14 -32 30 -46 60 -50 28 -143 -50 -143 -47 0 -77 31 -82 87 -2 23 -1 40 3 38
10 -7 32 42 24 54 -3 7 -59 47 -123 90 -109 72 -120 77 -160 73 -59 -6 -92 24
-92 82 0 54 30 86 81 86 29 0 43 -7 63 -31z m-224 -4 c0 -8 -6 -15 -14 -15 -8
0 -16 7 -20 15 -4 10 1 15 14 15 11 0 20 -7 20 -15z m80 11 c0 -2 -7 -6 -15
-10 -8 -3 -15 -1 -15 4 0 6 7 10 15 10 8 0 15 -2 15 -4z m410 -97 c0 -5 5 -7
10 -4 6 3 10 1 10 -4 0 -15 -13 -14 -36 4 -17 13 -17 14 -1 15 9 0 17 -5 17
-11z m125 -78 c-3 -5 5 -11 17 -13 22 -3 29 -23 8 -23 -5 0 -9 -4 -7 -10 1 -5
7 -9 12 -7 16 4 -42 -42 -77 -61 -18 -10 -25 -12 -15 -4 22 18 22 29 1 25 -10
-2 -19 4 -21 12 -3 11 -2 12 4 3 7 -10 13 -10 29 2 25 19 40 19 24 0 -7 -8 -9
-15 -4 -15 12 1 50 30 41 31 -4 1 -11 3 -17 4 -5 1 -16 3 -22 4 -7 1 -2 7 12
12 19 8 22 12 10 19 -8 5 -18 6 -22 4 -4 -3 -5 2 -2 10 3 9 13 16 21 16 8 0
12 -4 8 -9z"/>
<path d="M7284 6036 c-20 -15 -14 -43 12 -53 20 -8 47 19 39 39 -9 23 -30 29
-51 14z"/>
<path d="M7627 5693 c-12 -11 -8 -40 7 -52 26 -22 63 10 50 44 -6 15 -45 21
-57 8z"/>
<path d="M6763 6043 c-15 -6 -17 -49 -3 -58 33 -20 65 26 38 53 -13 13 -16 13
-35 5z"/>
<path d="M7037 5980 c-6 -16 -72 -262 -90 -339 -6 -24 -16 -45 -22 -47 -6 -3
-47 15 -91 40 -43 24 -80 43 -82 41 -2 -2 17 -40 42 -85 51 -92 54 -100 28
-100 -28 0 -386 -99 -380 -105 2 -2 86 -26 188 -54 102 -28 191 -54 198 -56
11 -4 9 -13 -8 -43 -12 -20 -36 -62 -53 -92 l-31 -54 69 39 c39 21 80 45 92
53 28 18 24 28 89 -215 27 -101 52 -183 55 -183 3 0 29 89 58 198 29 108 55
200 57 204 3 4 39 -13 82 -38 122 -73 119 -71 101 -43 -31 48 -89 156 -89 166
0 5 90 34 200 63 111 30 195 57 188 61 -11 6 -216 64 -345 99 -24 6 -43 15
-43 19 0 5 21 46 46 91 25 45 44 83 42 85 -1 1 -41 -19 -88 -46 -47 -27 -88
-49 -91 -49 -4 0 -27 80 -53 178 -60 223 -62 231 -69 212z m61 -507 c37 -23
55 -77 41 -120 -11 -36 -59 -73 -92 -73 -32 0 -83 30 -98 56 -21 40 -16 90 12
120 42 45 84 51 137 17z m-245 -80 c-13 -2 -33 -2 -45 0 -13 2 -3 4 22 4 25 0
35 -2 23 -4z"/>
<path d="M5860 5898 c-30 -11 -167 -62 -305 -113 -137 -52 -258 -97 -267 -100
-17 -7 -18 -58 -18 -882 0 -945 1 -961 55 -1190 66 -276 213 -562 420 -818
141 -174 381 -392 603 -548 l82 -59 58 54 58 53 -116 79 c-111 76 -305 233
-363 293 l-28 30 128 108 c70 60 155 132 188 161 l61 53 99 -85 c54 -46 104
-84 111 -84 6 0 18 7 25 17 8 9 58 52 112 97 55 45 113 93 131 107 l31 27 -3
-193 -3 -193 -24 22 c-22 21 -25 31 -27 130 l-3 108 -47 -37 -48 -36 0 -97 0
-97 130 -115 c71 -63 136 -114 145 -114 8 1 70 53 139 115 118 109 124 116
125 154 1 38 -3 45 -70 104 l-71 64 74 74 73 74 -25 21 c-14 11 -47 40 -73 65
l-48 45 3 62 3 61 432 370 c237 204 500 428 583 499 l153 129 67 -74 68 -74
22 75 c12 41 53 176 91 299 38 123 69 227 69 231 0 5 -14 5 -32 0 -17 -5 -146
-32 -287 -60 -141 -28 -264 -54 -273 -58 -15 -6 -10 -16 37 -69 30 -33 55 -63
55 -66 0 -3 -88 -80 -195 -172 -107 -92 -195 -169 -195 -172 0 -3 7 -3 15 1 8
3 15 0 15 -5 0 -7 -9 -9 -21 -6 -16 4 -128 -86 -537 -436 -284 -243 -539 -461
-566 -484 l-49 -41 -101 84 c-55 47 -106 82 -113 80 -7 -3 -135 -110 -284
-238 l-272 -232 -29 35 c-36 42 -144 205 -185 279 -119 215 -200 486 -223 742
-5 63 -10 448 -10 864 l0 752 103 40 c56 22 173 66 260 98 l157 58 0 78 c0 43
-3 78 -7 77 -5 0 -33 -9 -63 -21z m2715 -1198 c-16 -17 -35 -28 -43 -25 -7 2
-11 1 -8 -4 3 -4 -7 -19 -22 -32 -20 -18 -22 -19 -9 -3 9 11 17 28 17 36 0 9
6 19 13 21 9 4 8 8 -3 16 -11 8 -6 10 22 6 21 -2 40 0 43 5 4 6 9 10 12 10 4
0 -6 -14 -22 -30z m-75 -15 c0 -8 -5 -15 -11 -15 -5 0 -8 4 -5 9 4 5 0 12 -6
14 -8 3 -6 6 5 6 9 1 17 -6 17 -14z m-393 -51 c-3 -3 -12 -4 -19 -1 -8 3 -5 6
6 6 11 1 17 -2 13 -5z m43 2 c0 -11 -19 -15 -25 -6 -3 5 1 10 9 10 9 0 16 -2
16 -4z m310 -29 c0 -2 -12 -14 -27 -28 l-28 -24 24 28 c23 25 31 32 31 24z
m-309 -27 c13 0 18 5 14 13 -4 6 0 4 9 -7 9 -10 20 -15 27 -10 9 5 10 2 6 -11
-6 -14 -3 -16 12 -12 16 4 18 2 10 -12 -5 -9 -13 -28 -19 -43 -5 -16 -15 -28
-21 -28 -8 0 -8 4 1 15 7 9 10 18 6 22 -3 3 -6 1 -6 -5 0 -19 -19 -14 -19 6
-3 49 -6 62 -17 58 -13 -5 -34 13 -33 29 0 5 3 4 6 -2 2 -7 14 -13 24 -13z
m229 -44 c0 -2 -42 -38 -92 -81 -51 -43 -80 -64 -63 -46 l29 31 -18 32 c-11
17 -14 28 -8 24 6 -3 12 -3 15 1 2 5 2 2 1 -4 -4 -17 2 -16 33 5 15 9 24 11
20 5 -14 -22 16 -14 48 12 31 25 35 28 35 21z m-150 -96 c-8 -5 -17 -7 -19 -4
-3 3 1 9 9 14 8 5 17 7 19 4 3 -3 -1 -9 -9 -14z m-180 -60 c0 -5 -4 -10 -10
-10 -5 0 -10 5 -10 10 0 6 5 10 10 10 6 0 10 -4 10 -10z m130 -14 c0 -2 -26
-25 -57 -51 -32 -26 -42 -32 -23 -13 19 18 36 38 38 43 1 6 6 10 11 10 5 0 13
3 17 8 8 8 14 9 14 3z m-280 -104 c0 -5 -9 -18 -21 -30 -11 -12 -17 -27 -13
-33 5 -8 1 -8 -13 0 -11 6 -22 9 -25 8 -2 -1 7 8 21 21 15 12 31 27 36 32 13
12 15 12 15 2z m140 -16 c0 -3 -185 -163 -210 -180 -9 -6 11 15 45 46 33 31
63 57 68 58 4 0 7 7 7 16 0 8 4 13 8 10 5 -3 24 8 43 24 35 30 39 33 39 26z
m-116 -61 c-25 -19 -38 -19 -22 0 7 8 19 14 27 15 11 0 9 -4 -5 -15z m-164
-48 c0 -8 -7 -14 -15 -14 -11 0 -12 4 -4 14 6 7 13 13 15 13 2 0 4 -6 4 -13z
m-50 -170 c0 -2 -15 -16 -32 -33 l-33 -29 29 33 c28 30 36 37 36 29z m-80 -72
c-7 -9 -36 -34 -64 -57 -47 -38 -47 -36 9 15 60 57 78 70 55 42z m-210 -178
c0 -2 -10 -12 -22 -23 l-23 -19 19 23 c18 21 26 27 26 19z m-351 -754 c-1
-142 -4 -246 -6 -230 -4 22 -7 25 -17 14 -7 -7 -15 -19 -19 -27 -7 -18 -8 12
-12 255 l-4 190 27 28 c14 15 27 27 29 27 2 0 2 -116 2 -257z m-3 -360 c-7
-24 -8 -25 -26 -8 -11 10 -19 25 -19 34 1 13 2 13 6 -2 2 -9 9 -15 14 -12 5 4
9 1 9 -6 0 -7 3 -9 6 -6 4 4 1 14 -7 24 -9 11 -10 14 -1 9 7 -4 12 -2 13 6 0
11 2 11 6 0 3 -7 2 -24 -1 -39z"/>
<path d="M8275 4480 c3 -5 11 -10 16 -10 6 0 7 5 4 10 -3 6 -11 10 -16 10 -6
0 -7 -4 -4 -10z"/>
<path d="M8152 5843 l3 -78 115 -43 c63 -24 179 -68 258 -98 l142 -56 0 -345
0 -345 38 6 c20 4 50 9 66 12 25 5 28 4 22 -12 -4 -11 -33 -102 -64 -204 l-56
-185 -7 -300 c-8 -384 -32 -522 -135 -782 -100 -252 -245 -465 -478 -699 -158
-158 -220 -210 -401 -338 -60 -43 -111 -81 -111 -84 -1 -4 22 -29 52 -56 l53
-49 117 84 c389 279 701 633 861 977 82 177 137 360 169 567 15 93 17 181 16
580 -1 259 -2 653 -2 876 l0 406 -97 38 c-128 49 -512 190 -541 200 -23 7 -23
6 -20 -72z"/>
<path d="M6413 5702 c-11 -7 -16 -26 -14 -49 2 -19 51 -16 58 3 11 29 -20 62
-44 46z"/>
<path d="M5720 5566 l-195 -73 0 -764 c0 -717 1 -771 20 -884 17 -102 20 -113
23 -72 l3 47 51 0 c47 0 50 1 45 23 -22 84 -28 307 -25 906 l3 654 140 52 140
52 3 66 c2 37 -1 67 -5 67 -4 0 -96 -33 -203 -74z"/>
<path d="M8158 5573 l-3 -63 50 -19 c28 -10 92 -34 143 -52 l92 -33 0 -284 0
-284 46 7 c26 3 52 9 58 11 8 3 12 97 13 318 l2 314 -27 10 c-15 6 -104 39
-199 75 l-171 64 -4 -64z m73 22 l34 -14 -30 -1 c-17 0 -37 6 -44 13 -11 10
-11 8 -2 -10 7 -14 8 -23 2 -23 -5 0 -12 -8 -14 -17 -3 -10 -5 1 -6 25 -1 47
6 51 60 27z m306 -145 c4 -48 -3 -66 -21 -51 -11 9 -15 8 -20 -5 -9 -24 -20
-9 -21 29 0 17 -4 37 -8 44 -9 14 9 23 43 20 20 -2 25 -8 27 -37z m-81 -6
c-11 -8 -29 -11 -40 -8 -39 12 -35 19 12 21 43 2 45 1 28 -13z m64 -178 c0 -3
-4 -8 -10 -11 -5 -3 -10 -1 -10 4 0 6 5 11 10 11 6 0 10 -2 10 -4z"/>
<path d="M8480 5476 c0 -2 9 -6 20 -9 11 -3 18 -1 14 4 -5 9 -34 13 -34 5z"/>
<path d="M7564 5293 c-47 -14 -52 -18 -64 -56 -40 -139 -160 -256 -330 -324
-23 -9 -30 -27 -63 -149 -35 -129 -38 -147 -35 -254 l3 -115 31 -3 c22 -2 40
5 63 23 l31 27 0 111 c0 99 2 113 21 134 18 18 20 25 9 38 -18 22 -4 82 24
101 15 9 41 14 67 12 41 -2 53 4 162 82 117 83 133 104 102 130 -24 20 -19 77
9 105 19 19 26 40 31 90 4 36 3 65 -1 64 -5 0 -32 -7 -60 -16z"/>
<path d="M6406 5124 c-20 -19 -20 -29 0 -48 18 -18 17 -18 38 -10 22 9 20 51
-3 64 -15 7 -23 6 -35 -6z"/>
<path d="M7623 5114 c-8 -20 8 -48 30 -52 19 -4 39 30 31 52 -8 21 -53 21 -61
0z"/>
<path d="M7285 4786 c-23 -17 -16 -60 11 -64 26 -4 48 21 39 47 -8 25 -29 33
-50 17z"/>
<path d="M6746 4774 c-9 -22 11 -54 34 -54 25 0 41 29 29 52 -12 22 -55 24
-63 2z"/>
<path d="M5940 4215 l0 -135 90 0 90 0 0 -70 0 -70 -150 0 -150 0 0 -105 0
-105 -80 0 -80 0 0 -135 0 -135 193 0 194 0 -1 135 -1 135 -82 0 -83 0 0 70 0
70 270 0 270 0 0 -70 0 -70 -80 0 -80 0 0 -135 0 -135 195 0 195 0 0 135 0
134 -82 3 -83 3 -3 103 -3 102 -150 0 -150 0 3 68 3 67 90 3 90 3 -3 134 -3
135 -210 0 -209 0 0 -135z m640 -620 l0 -65 -125 0 -125 0 0 65 0 65 125 0
125 0 0 -65z"/>
<path d="M6417 3565 c-70 -19 -69 -25 6 -25 36 0 69 5 72 10 3 6 -3 10 -15 10
-12 0 -18 5 -15 10 3 6 5 10 3 9 -2 0 -25 -7 -51 -14z"/>
<path d="M8100 3810 l0 -50 -145 0 -144 0 -3 -102 -3 -103 -67 -39 -68 -38 0
-103 0 -103 68 -39 67 -39 0 -59 0 -60 -48 -3 -47 -3 0 -45 0 -44 -75 0 -75 0
0 148 0 147 -125 -3 -125 -3 0 -30 0 -29 95 0 95 0 0 -145 0 -145 105 0 105 0
0 -50 0 -50 130 0 130 0 0 125 0 125 -50 0 -50 0 0 65 0 64 64 36 c35 20 67
42 70 50 4 11 21 15 62 15 49 0 59 -3 77 -26 43 -55 114 -63 161 -19 50 46 46
109 -10 161 -33 32 -34 35 -34 108 l0 76 50 0 50 0 0 130 0 130 -130 0 -130 0
0 -50z m90 -40 c5 0 12 5 15 10 3 6 25 10 48 9 23 0 36 -3 30 -6 -7 -2 -13 -9
-13 -14 0 -6 5 -7 10 -4 6 3 10 -1 10 -10 0 -10 -5 -13 -12 -9 -10 6 -10 4 -2
-7 6 -8 14 -26 16 -41 l5 -28 -63 0 -64 0 1 68 c1 37 3 59 6 50 2 -10 8 -18
13 -18z m-88 -117 l3 -48 48 -3 47 -3 0 -83 c0 -79 -1 -83 -25 -94 -14 -7 -30
-23 -37 -37 -10 -23 -17 -25 -75 -25 l-63 0 0 59 0 60 -62 33 -63 33 -3 78 -3
77 115 0 115 0 3 -47z m-220 -178 l38 -19 -41 -22 -40 -23 -45 21 -45 22 43
23 c24 12 45 21 48 20 3 -1 22 -11 42 -22z m58 -123 c0 -45 -2 -49 -35 -65
l-35 -17 0 44 c0 39 4 47 33 64 17 11 33 21 35 21 1 1 2 -21 2 -47z m322 11
c25 -22 23 -50 -6 -68 -33 -22 -66 -5 -66 33 0 49 37 67 72 35z"/>
<path d="M6704 2607 c-15 -17 -41 -61 -58 -97 -28 -59 -31 -74 -31 -165 0 -92
3 -105 32 -168 60 -125 179 -216 315 -239 86 -15 118 -7 118 32 0 33 -4 35
-99 44 -124 12 -235 105 -272 228 -35 115 -16 217 58 316 20 27 22 36 12 48
-29 35 -46 35 -75 1z"/>
<path d="M7311 2616 l-22 -23 40 -58 c45 -64 64 -134 59 -210 l-3 -50 -54 -8
c-50 -7 -152 -58 -151 -76 1 -14 78 -59 87 -50 12 12 73 30 73 21 0 -3 -12
-18 -26 -33 -26 -27 -26 -27 -8 -58 10 -17 22 -31 26 -31 4 0 24 20 45 45 39
47 53 45 53 -7 0 -28 -43 -88 -64 -88 -9 0 -12 -24 -12 -82 0 -54 -6 -96 -16
-120 -19 -43 -13 -48 55 -48 l42 -1 119 -222 c164 -304 157 -293 208 -303 24
-5 47 -8 52 -9 5 0 17 23 26 50 15 43 15 53 3 72 -13 20 -12 23 34 49 26 15
50 29 52 31 6 4 -31 83 -39 83 -5 0 -28 -11 -51 -25 -24 -14 -47 -25 -51 -25
-4 0 -14 13 -22 28 -14 28 -14 28 35 56 27 15 49 33 49 39 0 7 -9 27 -20 44
l-20 33 -51 -31 c-28 -16 -53 -28 -55 -26 -2 2 -33 57 -68 122 l-64 119 31 55
c61 108 35 252 -60 330 -21 18 -47 34 -58 37 -18 4 -20 13 -20 102 0 88 -3
103 -31 162 -30 63 -78 130 -93 130 -4 0 -18 -11 -30 -24z"/>
<path d="M6760 2244 c12 -31 59 -104 68 -104 15 0 72 44 69 54 -5 15 -85 63
-120 72 -27 6 -27 5 -17 -22z"/>
<path d="M6532 2204 c-100 -79 -115 -251 -31 -364 9 -13 -16 -66 -130 -275
-78 -143 -141 -264 -141 -270 0 -14 27 -90 32 -89 1 1 24 4 50 8 33 5 53 15
67 32 l19 25 50 -30 c55 -32 56 -32 86 26 l16 32 -50 28 c-53 30 -58 38 -36
68 14 19 15 19 64 -8 l51 -28 14 23 c39 63 40 61 -17 93 l-53 30 62 115 61
115 45 3 c68 4 69 5 53 49 -7 21 -13 73 -14 115 0 75 -1 77 -32 97 -32 19 -70
83 -115 188 l-18 43 -33 -26z"/>
<path d="M6959 2147 c-19 -7 -46 -21 -59 -30 l-24 -16 40 -17 c21 -9 68 -20
104 -23 76 -8 85 -12 106 -52 19 -38 11 -79 -22 -110 -44 -42 -162 -28 -308
36 -18 8 -19 5 -14 -53 8 -79 49 -155 108 -198 25 -19 51 -34 58 -34 9 0 12
-66 12 -298 l0 -298 39 -38 40 -39 40 32 c31 25 41 40 41 62 l0 29 65 0 65 0
0 50 0 50 -65 0 -65 0 0 30 0 30 65 0 65 0 0 50 0 50 -65 0 -65 0 0 139 0 138
48 30 c85 53 131 132 132 229 0 97 -47 184 -127 231 -54 31 -158 41 -214 20z"/>
</g>
</svg>
